# xmcd
#
# Track frame offsets: 
#        150
#        27350
#        50440
#        65907
#        93180
#        115785
#        130002
#        153110
#        168042
#        182507
#
# Disc length: 2706 seconds
#
# Revision: 7
# Processed by: cddbd v1.5.2PL0 Copyright (c) Steve Scherf et al.
# Submitted via: ExactAudioCopy v1.0b3
#
DISCID=740a900a
DTITLE=Various Artist - Blues After Midnight CD 2
DYEAR=1992
DGENRE=Blues
TTITLE0=John Mayall - Dream about the Bkues
TTITLE1=Peter Green - Cryin'  won't bring you back
TTITLE2=Howlin  Wolf - Goin'  down slow
TTITLE3=Peter Green - The Clown
TTITLE4=John Mayall - All your love
TTITLE5=Michels - Cocktail Bar Blues
TTITLE6=Peter Green - Slabo Day
TTITLE7=Alexis Korner - That's all
TTITLE8=John Lee Hooker - Baby, you Ain't no Good
TTITLE9=Eric Burdon - I'll be with you again
EXTD=YEAR: 1992
EXTT0=
EXTT1=
EXTT2=
EXTT3=
EXTT4=
EXTT5=
EXTT6=
EXTT7=
EXTT8=
EXTT9=
PLAYORDER=
